<svg width="42" height="42" viewBox="0 0 42 42" fill="none" xmlns="http://www.w3.org/2000/svg">
<path d="M26.243 38.0625H15.757C14.5898 38.0625 13.538 37.4116 13.0165 36.3651C12.4915 35.3133 12.6035 34.0761 13.3087 33.1381L18.5536 26.1607C19.7226 24.605 22.2793 24.605 23.4483 26.1607L28.693 33.1364C29.3982 34.0744 29.5102 35.3116 28.9852 36.3633C28.462 37.4116 27.4102 38.0625 26.243 38.0625ZM21 27.5625C20.9195 27.5625 20.7655 27.5854 20.6518 27.7377L15.4069 34.7146C15.2599 34.9088 15.3178 35.0961 15.3651 35.1906C15.4106 35.2816 15.5225 35.4358 15.7588 35.4358H26.2447C26.4809 35.4358 26.5913 35.2816 26.6386 35.1906C26.6841 35.0961 26.7435 34.9088 26.5965 34.7146L21.3518 27.7377C21.2346 27.5854 21.0805 27.5625 21 27.5625ZM27.3927 22.5381C27.5047 22.0183 27.5625 21.5005 27.5625 21C27.5625 17.381 24.6173 14.4375 21 14.4375C17.3828 14.4375 14.4375 17.381 14.4375 21C14.4375 21.5005 14.4936 22.0183 14.6073 22.5381C14.7613 23.2468 15.4612 23.6983 16.17 23.5425C16.877 23.3903 17.3267 22.6906 17.1744 21.9818C17.0992 21.6388 17.0642 21.3168 17.0642 20.9983C17.0642 18.8265 18.8317 17.0608 21.0017 17.0608C23.1717 17.0608 24.9392 18.8265 24.9392 20.9983C24.9392 21.3168 24.9025 21.6371 24.829 21.9818C24.6767 22.6906 25.1264 23.3885 25.8334 23.5425C25.9279 23.5635 26.0207 23.5724 26.1135 23.5724C26.7155 23.5724 27.2597 23.1523 27.3927 22.5381ZM30.7265 27.7304C32.0915 25.7547 32.8125 23.4272 32.8125 21C32.8125 14.4865 27.5135 9.1875 21 9.1875C14.4865 9.1875 9.1875 14.4865 9.1875 21C9.1875 23.4272 9.90853 25.7547 11.2735 27.7304C11.683 28.3254 12.4984 28.4779 13.1004 28.0649C13.6954 27.6537 13.846 26.8343 13.433 26.2393C12.3725 24.7046 11.8108 22.8918 11.8108 21C11.8108 15.9338 15.932 11.8125 20.9983 11.8125C26.0645 11.8125 30.1858 15.9338 30.1858 21C30.1858 22.8918 29.6258 24.7028 28.5635 26.2393C28.1523 26.8361 28.3027 27.6537 28.8959 28.0649C29.1252 28.2224 29.3842 28.2974 29.6415 28.2974C30.0615 28.2974 30.471 28.0997 30.7265 27.7304ZM33.8887 32.1528C36.5802 29.0693 38.0625 25.109 38.0625 21C38.0625 11.592 30.408 3.9375 21 3.9375C11.592 3.9375 3.9375 11.592 3.9375 21C3.9375 25.109 5.41977 29.0693 8.11127 32.1528C8.58727 32.6988 9.41495 32.7549 9.96445 32.2789C10.5104 31.8029 10.5682 30.9732 10.0905 30.4272C7.81548 27.8214 6.5625 24.4737 6.5625 21C6.5625 13.0393 13.0393 6.5625 21 6.5625C28.9608 6.5625 35.4375 13.0393 35.4375 21C35.4375 24.4737 34.1845 27.8214 31.9095 30.4272C31.4335 30.9732 31.4896 31.8029 32.0356 32.2789C32.2858 32.4959 32.5919 32.6023 32.8982 32.6023C33.2657 32.6023 33.6297 32.4503 33.8887 32.1528Z" fill="white"/>
</svg>
