<svg width="24" height="24" viewBox="0 0 24 24" fill="none" xmlns="http://www.w3.org/2000/svg">
<path d="M21.6902 8.25015C21.6302 6.98015 21.3802 5.35015 20.0202 3.99015C18.6602 2.63015 17.0302 2.38015 15.7602 2.32015C14.2502 2.24015 9.76022 2.23015 8.26022 2.32015C6.99022 2.38015 5.36021 2.62015 4.00021 3.99015C2.64021 5.35015 2.3902 6.98015 2.3302 8.25015C2.2402 9.76015 2.2402 14.2501 2.3302 15.7501C2.3902 17.0201 2.63021 18.6501 4.00021 20.0201C5.37021 21.3801 7.00022 21.6301 8.26022 21.6901C9.02022 21.7301 10.5202 21.7501 12.0202 21.7501C13.5202 21.7501 15.0102 21.7301 15.7602 21.6901C17.0302 21.6301 18.6602 21.3902 20.0302 20.0201C21.3902 18.6601 21.6402 17.0301 21.7002 15.7601C21.7902 14.2501 21.7902 9.77014 21.7002 8.26014L21.6902 8.25015ZM20.1902 15.6701C20.1102 17.1801 19.7502 18.1601 18.9502 18.9501C18.1602 19.7401 17.1802 20.1101 15.6702 20.1801C14.2002 20.2601 9.81022 20.2601 8.32022 20.1801C6.82022 20.1001 5.84022 19.7301 5.04022 18.9401C4.25022 18.1501 3.88021 17.1701 3.81021 15.6601C3.73021 14.2201 3.73021 9.76014 3.81021 8.31014C3.89021 6.80014 4.25022 5.82014 5.04022 5.03014C5.83022 4.24014 6.82022 3.87015 8.32022 3.80015C9.06022 3.76015 10.5202 3.74015 11.9902 3.74015C13.4602 3.74015 14.9302 3.76015 15.6702 3.80015C17.1802 3.88015 18.1602 4.24014 18.9502 5.04014C19.7402 5.83014 20.1102 6.81015 20.1802 8.32015C20.2602 9.80015 20.2602 14.1901 20.1802 15.6701H20.1902ZM12.0002 7.25015C9.38021 7.25015 7.25021 9.38015 7.25021 12.0001C7.25021 14.6201 9.38021 16.7501 12.0002 16.7501C14.6202 16.7501 16.7502 14.6201 16.7502 12.0001C16.7502 9.38015 14.6202 7.25015 12.0002 7.25015ZM12.0002 15.2501C10.2102 15.2501 8.75021 13.7901 8.75021 12.0001C8.75021 10.2101 10.2102 8.75015 12.0002 8.75015C13.7902 8.75015 15.2502 10.2101 15.2502 12.0001C15.2502 13.7901 13.7902 15.2501 12.0002 15.2501ZM18.5202 6.50015C18.5202 7.05015 18.0702 7.50015 17.5202 7.50015C16.9702 7.50015 16.5202 7.05015 16.5202 6.50015C16.5202 5.95015 16.9602 5.50015 17.5202 5.50015C18.0702 5.50015 18.5202 5.95015 18.5202 6.50015Z" fill="white"/>
</svg>
