<svg width="32" height="33" viewBox="0 0 32 33" fill="none" xmlns="http://www.w3.org/2000/svg">
<path d="M15.0975 29.0633C14.3522 29.0633 13.6202 28.8008 13.0202 28.2928L8.0988 24.1232C7.7988 23.8685 7.41615 23.7286 7.02148 23.7286H4.66553C3.01219 23.7286 1.66553 22.3833 1.66553 20.7286V11.3966C1.66553 9.74193 3.01219 8.3966 4.66553 8.3966H7.02148C7.41615 8.3966 7.79876 8.25674 8.1001 8.00207L13.0215 3.83247C13.9922 3.00981 15.3096 2.83264 16.4629 3.3673C17.6162 3.90197 18.3322 5.02336 18.3322 6.29536V25.8325C18.3322 27.1045 17.6162 28.2259 16.4629 28.7605C16.0242 28.9632 15.5588 29.0633 15.0975 29.0633ZM4.66683 10.3953C4.11616 10.3953 3.66683 10.8433 3.66683 11.3953V20.7273C3.66683 21.2793 4.11616 21.7273 4.66683 21.7273H7.02279C7.88945 21.7273 8.73076 22.0351 9.39209 22.5965L14.3135 26.7661C14.6855 27.0821 15.1761 27.1512 15.6214 26.9432C16.0668 26.7365 16.3322 26.3205 16.3322 25.8299V6.29276C16.3322 5.80209 16.0668 5.38582 15.6214 5.17915C15.1774 4.97249 14.6868 5.03923 14.3148 5.35656L9.39209 9.52583C8.73076 10.0858 7.88945 10.3953 7.02279 10.3953H4.66683V10.3953ZM22.3561 22.4233C24.0615 20.726 25.0002 18.466 25.0002 16.062C25.0002 13.658 24.0615 11.398 22.3561 9.70064C21.9641 9.3113 21.3309 9.31124 20.9416 9.70324C20.5509 10.0939 20.5535 10.7286 20.9442 11.118C22.2695 12.438 23.0002 14.1953 23.0002 16.0633C23.0002 17.9313 22.2695 19.6886 20.9442 21.0086C20.5535 21.3979 20.5509 22.0313 20.9416 22.4233C21.1362 22.6193 21.3936 22.7179 21.6496 22.7179C21.9056 22.7152 22.1601 22.618 22.3561 22.4233ZM26.1296 26.1967C28.8402 23.4927 30.3335 19.8926 30.3335 16.062C30.3335 12.2313 28.8402 8.6312 26.1296 5.9272C25.7376 5.53653 25.1042 5.53784 24.7148 5.9285C24.3255 6.31917 24.3254 6.95255 24.7174 7.34322C27.0494 9.66855 28.3335 12.7646 28.3335 16.062C28.3335 19.3593 27.0494 22.454 24.7174 24.7807C24.3254 25.1714 24.3255 25.8048 24.7148 26.1954C24.9095 26.3914 25.1669 26.4887 25.4229 26.4887C25.6789 26.4887 25.9336 26.3914 26.1296 26.1967Z" fill="white"/>
</svg>
