<svg width="42" height="43" viewBox="0 0 42 43" fill="none" xmlns="http://www.w3.org/2000/svg">
<path d="M21 3.53125C11.34 3.53125 3.5 11.3713 3.5 21.0312C3.5 30.6912 11.34 38.5312 21 38.5312C30.66 38.5312 38.5 30.6912 38.5 21.0312C38.5 11.3713 30.66 3.53125 21 3.53125ZM28.105 29.2738C27.8075 29.2738 27.6325 29.1862 27.3525 29.0112C22.9425 26.3512 17.8325 26.2463 12.775 27.2788C12.495 27.3488 12.145 27.4537 11.935 27.4537C11.2525 27.4537 10.815 26.9112 10.815 26.3337C10.815 25.5987 11.2525 25.2663 11.7775 25.1438C17.5525 23.8663 23.4675 23.9713 28.5075 26.9988C28.945 27.2788 29.19 27.5238 29.19 28.1713C29.19 28.8188 28.6825 29.2562 28.1225 29.2562L28.105 29.2738ZM29.995 24.6362C29.6275 24.6362 29.3825 24.4787 29.12 24.3387C24.71 21.7312 18.13 20.6812 12.285 22.2562C11.9525 22.3437 11.76 22.4313 11.445 22.4313C10.6925 22.4313 10.08 21.8188 10.08 21.0663C10.08 20.3138 10.4475 19.8063 11.165 19.6138C13.125 19.0713 15.1375 18.6512 18.06 18.6512C22.645 18.6512 27.0725 19.7888 30.555 21.8538C31.1325 22.1863 31.36 22.6237 31.36 23.2362C31.36 24.0062 30.765 24.6188 29.995 24.6188V24.6362ZM32.1825 19.2638C31.815 19.2638 31.5875 19.1763 31.2725 18.9838C26.25 15.9913 17.2725 15.2738 11.445 16.8838C11.1825 16.9538 10.8675 17.0587 10.535 17.0587C9.60748 17.0587 8.88998 16.3237 8.88998 15.3962C8.88998 14.4687 9.485 13.8913 10.115 13.7163C12.6 12.9813 15.3825 12.6488 18.41 12.6488C23.555 12.6488 28.9625 13.7162 32.9 16.0262C33.4425 16.3412 33.81 16.7788 33.81 17.6188C33.81 18.5813 33.04 19.2638 32.165 19.2638H32.1825Z" fill="#1ED760"/>
</svg>
