<svg width="20" height="20" viewBox="0 0 20 20" fill="none" xmlns="http://www.w3.org/2000/svg">
<path d="M8.97345 12.0831V14.5831C8.97345 14.9281 8.69345 15.2081 8.34845 15.2081C8.00345 15.2081 7.72345 14.9281 7.72345 14.5831V12.0831C7.72345 11.7381 8.00345 11.4581 8.34845 11.4581C8.69345 11.4581 8.97345 11.7381 8.97345 12.0831ZM11.6818 11.4581C11.3368 11.4581 11.0568 11.7381 11.0568 12.0831V14.5831C11.0568 14.9281 11.3368 15.2081 11.6818 15.2081C12.0268 15.2081 12.3068 14.9281 12.3068 14.5831V12.0831C12.3068 11.7381 12.0268 11.4581 11.6818 11.4581ZM16.856 9.53976L16.2794 15.3106C16.0902 17.2039 15.0735 18.1248 13.1701 18.1248H6.86184C4.9585 18.1248 3.94104 17.2048 3.75271 15.3106L3.17765 9.55725C2.41015 9.18642 1.87598 8.40726 1.87598 7.49976C1.87598 6.23559 2.90348 5.20809 4.16764 5.20809H5.96513L7.79934 2.17643C7.97767 1.88143 8.36019 1.78642 8.65769 1.96559C8.95269 2.14392 9.04764 2.52893 8.86847 2.82393L7.426 5.20893H12.5518L11.131 2.82059C10.9544 2.52392 11.0519 2.14059 11.3485 1.96392C11.6452 1.78642 12.0285 1.88559 12.2052 2.18142L14.0068 5.20976H15.8335C17.0977 5.20976 18.1252 6.23726 18.1252 7.50143C18.1252 8.39393 17.6052 9.16226 16.856 9.53976ZM3.12516 7.49976C3.12516 8.07393 3.59266 8.54143 4.16683 8.54143H15.8335C16.4077 8.54143 16.8752 8.07393 16.8752 7.49976C16.8752 6.92559 16.4077 6.45809 15.8335 6.45809H4.16683C3.59266 6.45809 3.12516 6.92559 3.12516 7.49976ZM15.5751 9.79143H4.45603L4.99518 15.1864C5.10518 16.2814 5.43436 16.8748 6.86102 16.8748H13.1693C14.5885 16.8748 14.9277 16.2556 15.0352 15.1864L15.5751 9.79143Z" fill="#A27B5C"/>
</svg>
