<svg width="24" height="24" viewBox="0 0 24 24" fill="none" xmlns="http://www.w3.org/2000/svg">
<path d="M22.5797 5.42999C22.4097 5.21999 22.1497 5.13 21.8997 5.16C21.9997 4.96 22.0797 4.74999 22.1497 4.53999C22.2497 4.23999 22.1497 3.92 21.9097 3.72C21.6697 3.53 21.3297 3.5 21.0597 3.66C20.4497 4.02 19.7697 4.29001 19.0697 4.46001C18.1897 3.69001 17.0297 3.25 15.8397 3.25C13.1697 3.25 10.9897 5.39999 10.9897 8.03999C10.9897 8.06999 10.9897 8.1 10.9897 8.13C8.23973 7.77 5.71973 6.37999 3.96973 4.25999C3.80973 4.06999 3.56973 3.97001 3.32973 3.99001C3.08973 4.01001 2.86973 4.15 2.73973 4.36C2.29973 5.1 2.07973 5.92 2.07973 6.78C2.07973 7.54 2.25972 8.26999 2.58972 8.92999C2.52972 8.94999 2.46973 8.97999 2.41973 9.00999C2.18973 9.13999 2.04973 9.41999 2.04973 9.67999C2.04973 11.07 2.65973 12.35 3.65973 13.24C3.49973 13.44 3.43973 13.71 3.51973 13.95C3.93973 15.25 4.89973 16.28 6.10973 16.83C4.85973 17.39 3.43974 17.61 2.06974 17.45C1.71974 17.41 1.38973 17.62 1.27973 17.95C1.15973 18.28 1.28972 18.65 1.58972 18.83C3.57972 20.09 5.89972 20.76 8.28972 20.76C16.0597 20.76 20.6997 14.54 20.6997 8.52V8.36C21.4297 7.79 22.0697 7.11 22.6097 6.34C22.7997 6.07 22.7897 5.7 22.5797 5.44V5.42999ZM19.4997 7.38C19.2897 7.53 19.1697 7.77999 19.1897 8.03999C19.1997 8.19999 19.1997 8.34999 19.1997 8.50999C19.1997 13.79 15.1197 19.25 8.28972 19.25C7.16972 19.25 6.06973 19.08 5.01973 18.76C6.28973 18.47 7.47973 17.91 8.52973 17.1C8.77973 16.91 8.87973 16.57 8.77973 16.27C8.67973 15.97 8.39973 15.76 8.07973 15.75C7.04973 15.73 6.09973 15.25 5.49973 14.49C5.75973 14.46 6.01973 14.42 6.26973 14.35C6.60973 14.26 6.83973 13.95 6.82973 13.6C6.82973 13.25 6.56972 12.95 6.22972 12.88C5.05972 12.65 4.13973 11.83 3.74973 10.75C4.03973 10.81 4.32972 10.85 4.61972 10.86C4.99972 10.88 5.25973 10.66 5.35973 10.34C5.45973 10.02 5.33973 9.67 5.05973 9.48C4.12973 8.87 3.56974 7.85001 3.56974 6.74001C3.56974 6.52001 3.58973 6.3 3.62973 6.09C5.78973 8.22 8.69972 9.51 11.7897 9.67C12.0197 9.67 12.2497 9.59 12.3997 9.41C12.5497 9.23 12.6097 9 12.5597 8.77C12.4997 8.5 12.4797 8.24 12.4797 8C12.4797 6.19 13.9797 4.71001 15.8297 4.71001C16.7697 4.71001 17.6397 5.08 18.2797 5.75C18.4597 5.93 18.7097 6.02 18.9597 5.97C19.0097 5.97 19.0497 5.95 19.0997 5.94C18.8897 6.14 18.8197 6.44 18.9097 6.72C19.0097 7.03 19.2997 7.24001 19.6197 7.24001C19.6197 7.24001 19.5297 7.31 19.4797 7.34L19.4997 7.38Z" fill="white"/>
</svg>
